<svg version="1.2" xmlns="http://www.w3.org/2000/svg" viewBox="0 0 800 800" width="512" height="512">
	<style>
		.s0 { fill: none;stroke: #ffffff;stroke-linecap: round;stroke-linejoin: round;stroke-width: 66.7 } 
	</style>
	<g id="Layer 1">
		<path class="s0" d="m188.73 584.86v-338.03c0-29.58 0-44.37 5.76-55.67 5.06-9.93 13.14-18.01 23.08-23.08 11.3-5.76 26.09-5.76 55.67-5.76h253.52c29.58 0 44.37 0 55.67 5.76 9.94 5.07 18.02 13.15 23.08 23.08 5.76 11.3 5.76 26.09 5.76 55.67v285.21h-369.72c-29.17 0-52.82 23.65-52.82 52.82zm0 0c0 29.17 23.65 52.82 52.82 52.82h369.72m-290.5-369.72h158.46m-158.46 105.63h158.46m105.63 158.45v105.64"/>
	</g>
</svg>