<svg version="1.2" xmlns="http://www.w3.org/2000/svg" viewBox="0 0 800 800" width="512" height="512">
	<g id="Layer 1">
		<path fill="#ffffff" d="m713.47 137.65l-51.12-51.12c-4.71-4.71-12.34-4.71-17.04 0l-51.13 51.12c-4.7 4.71-4.7 12.33 0 17.04l-141.61 141.6c-46.59-32.66-98.4-38.99-125.39-11.99-6.12 6.11-10.53 13.51-13.31 21.83-2.35 6.9-5.05 13.98-8.38 21.04-3.9 8.27-9.06 16.13-15.92 22.99-9.6 9.6-21.21 15.82-33.29 19.7-25.13 8.07-56.04 13.96-81.91 21.77-9.6 2.4-18.8 5.83-27.44 10.32-4.18 2.05-7.96 4.25-11.26 6.63q0.01 0.01 0.01 0.01c-6.16 4.13-11.96 8.87-17.32 14.23-23.85 23.85-35.4 56.33-35.36 91.1 0.05 47.35 21.58 99.08 62.78 140.29 41.35 41.35 92.82 62.88 140.3 62.79 34.59-0.07 67.35-11.62 91.09-35.37 5.39-5.39 10.14-11.22 14.29-17.41 2.3-3.2 4.44-6.86 6.43-10.88 4.66-8.92 8.22-18.42 10.64-28.36 7.72-25.74 13.58-56.35 21.59-81.28 3.88-12.08 10.09-23.69 19.7-33.29 6.86-6.86 14.72-12.01 22.99-15.91 6.94-3.28 13.91-5.95 20.71-8.28 8.46-2.77 15.97-7.2 22.17-13.4 27-27 20.67-78.8-11.99-125.4l141.6-141.6h0.01c4.7 4.71 12.33 4.71 17.04 0l51.12-51.12c4.71-4.71 4.71-12.34 0-17.05zm-425.89 460.24l-85.21-85.2 17.04-17.04 85.21 85.2zm126.33-147.91c-17.64 17.65-46.25 17.65-63.9 0-17.65-17.64-17.65-46.25 0-63.9 17.64-17.65 46.26-17.65 63.9 0 17.65 17.64 17.65 46.26 0 63.9z"/>
	</g>
</svg>