<svg version="1.2" xmlns="http://www.w3.org/2000/svg" viewBox="0 0 800 800" width="512" height="512">
	<g>
		<g>
			<path fill="#000000" d="m713.43 370.16l-270.97-271.01c-11.25-11.25-26.53-17.57-42.42-17.57-15.92 0-31.19 6.32-42.44 17.57l-271.03 271.01c-17.15 17.15-22.29 42.74-13 65.17 9.3 22.42 31.17 36.82 55.44 36.82h34.62v193.84c0 28.99 23.14 52.44 52.14 52.44h46.12v-175.23c0-13.35 11.04-23.78 24.37-23.78h89.61c13.34 0 24.09 10.44 24.09 23.78v175.22h184.31c28.99 0 52.02-23.46 52.02-52.45v-193.82h34.72c24.26 0 46.14-14.4 55.44-36.82 9.27-22.43 4.15-48-13.02-65.17z"/>
		</g>
	</g>
</svg>