<svg version="1.2" xmlns="http://www.w3.org/2000/svg" viewBox="0 0 512 512" width="512" height="512">
	<g id="Layer 1">
		<g id="Layer 1">
			<path fill="#000000" d="m255.5 85.5c-46.44 0-52.26 0.2-70.5 1.03-18.2 0.83-30.63 3.72-41.51 7.95q-4.27 1.6-8.33 3.66-4.07 2.06-7.89 4.55-3.82 2.48-7.35 5.37-3.52 2.89-6.72 6.14-3.25 3.19-6.14 6.72-2.88 3.53-5.37 7.35-2.49 3.82-4.55 7.88-2.06 4.07-3.67 8.34c-4.22 10.88-7.11 23.31-7.94 41.51-0.83 18.23-1.03 24.06-1.03 70.5 0 46.44 0.2 52.27 1.03 70.5 0.83 18.2 3.72 30.63 7.95 41.51q1.61 4.27 3.67 8.33 2.05 4.07 4.54 7.89 2.49 3.82 5.38 7.35 2.88 3.52 6.13 6.72 3.2 3.25 6.73 6.14 3.52 2.88 7.34 5.37 3.82 2.49 7.89 4.55 4.07 2.06 8.33 3.66c10.88 4.23 23.31 7.12 41.51 7.95 18.24 0.83 24.06 1.03 70.5 1.03 46.44 0 52.27-0.2 70.51-1.03 18.2-0.83 30.63-3.72 41.5-7.95 5.67-2.19 11.09-4.96 16.18-8.28 5.09-3.31 9.82-7.15 14.11-11.44 4.3-4.3 8.13-9.03 11.44-14.12 3.32-5.09 6.09-10.51 8.28-16.17 4.23-10.88 7.12-23.31 7.95-41.51 0.83-18.24 1.03-24.06 1.03-70.5 0-46.44-0.2-52.27-1.03-70.5-0.83-18.2-3.72-30.63-7.95-41.51q-1.6-4.27-3.66-8.33-2.06-4.07-4.55-7.89-2.48-3.82-5.37-7.35-2.89-3.53-6.14-6.72-3.19-3.25-6.72-6.14-3.53-2.89-7.35-5.37-3.82-2.49-7.88-4.55-4.07-2.06-8.34-3.67c-10.88-4.22-23.31-7.11-41.51-7.94-18.23-0.83-24.06-1.03-70.5-1.03zm0 30.81c45.66 0 51.07 0.18 69.1 1 16.67 0.76 25.73 3.54 31.75 5.89q2.78 1.02 5.42 2.35 2.65 1.33 5.13 2.94 2.48 1.61 4.77 3.49 2.28 1.88 4.34 4.01 2.13 2.06 4.01 4.35 1.88 2.28 3.49 4.76 1.62 2.48 2.94 5.13 1.33 2.64 2.36 5.42c2.34 6.02 5.12 15.08 5.88 31.75 0.83 18.03 1 23.44 1 69.1 0 45.66-0.17 51.07-1 69.1-0.76 16.67-3.54 25.73-5.88 31.75-1.42 3.68-3.22 7.2-5.37 10.5-2.15 3.31-4.64 6.38-7.43 9.17-2.78 2.78-5.85 5.27-9.16 7.42-3.3 2.15-6.82 3.95-10.5 5.37-6.02 2.34-15.08 5.12-31.75 5.88-18.03 0.83-23.44 1-69.1 1-45.66 0-51.07-0.17-69.1-1-16.67-0.76-25.73-3.54-31.75-5.88q-2.78-1.03-5.42-2.36-2.65-1.32-5.13-2.94-2.48-1.61-4.77-3.49-2.28-1.88-4.34-4-2.13-2.07-4.01-4.35-1.88-2.29-3.49-4.77-1.62-2.48-2.94-5.12-1.33-2.65-2.36-5.43c-2.34-6.02-5.12-15.08-5.88-31.75-0.83-18.03-1-23.44-1-69.1 0-45.66 0.17-51.07 1-69.1 0.76-16.67 3.54-25.72 5.88-31.75q1.03-2.78 2.36-5.42 1.33-2.65 2.94-5.13 1.61-2.48 3.49-4.77 1.88-2.28 4.01-4.34 2.06-2.13 4.35-4.01 2.28-1.88 4.76-3.49 2.48-1.61 5.13-2.94 2.64-1.33 5.42-2.35c6.02-2.35 15.08-5.13 31.75-5.89 18.03-0.83 23.44-1 69.1-1z"/>
			<path fill="#000000" d="m255.5 168.69c-35.52 0-67.54 21.39-81.13 54.21-13.59 32.81-6.08 70.58 19.04 95.69 25.11 25.11 62.88 32.63 95.69 19.04 32.82-13.6 54.21-45.61 54.21-81.13 0-11.53-2.27-22.95-6.68-33.6-4.42-10.66-10.88-20.34-19.04-28.49-8.15-8.16-17.83-14.62-28.49-19.04-10.65-4.41-22.07-6.68-33.6-6.68zm0 144.81c-23.05 0-43.84-13.89-52.66-35.19-8.82-21.3-3.95-45.81 12.36-62.12 16.3-16.3 40.81-21.17 62.11-12.35 21.3 8.82 35.19 29.61 35.19 52.66 0 7.48-1.47 14.9-4.34 21.81-2.86 6.92-7.06 13.2-12.36 18.49-5.29 5.3-11.57 9.5-18.49 12.36-6.91 2.86-14.32 4.34-21.81 4.34z"/>
			<path fill="#000000" d="m346.78 185.74c-11.35 0-20.52-9.17-20.52-20.52 0-11.35 9.17-20.52 20.52-20.52 11.35 0 20.52 9.17 20.52 20.52 0 11.35-9.17 20.52-20.52 20.52z"/>
		</g>
	</g>
</svg>