<svg version="1.2" xmlns="http://www.w3.org/2000/svg" viewBox="0 0 800 800" width="512" height="512">
	<g id="Layer 1">
		<path fill-rule="evenodd" fill="#ffffff" d="m425.88 345.4c59.43-12 104.18-64.52 104.18-127.48 0-71.83-58.23-130.06-130.06-130.06-71.83 0-130.06 58.23-130.06 130.06 0 62.96 44.75 115.48 104.17 127.48q-0.12 1.27-0.12 2.58v234.1c0 14.37 11.64 26.01 26.01 26.01 14.37 0 26.01-11.64 26.01-26.01v-234.1q0-1.31-0.13-2.58zm-25.88-49.28c-43.25 0-78.2-34.96-78.2-78.2 0-43.25 34.95-78.21 78.2-78.21 43.25 0 78.2 34.96 78.2 78.21 0 43.24-34.95 78.2-78.2 78.2z"/>
		<path fill-rule="evenodd" fill="#ffffff" d="m212.29 511.82c21.91-16.73 50.68-28.26 83.72-32.25 14.26-1.72 25.95 10.11 25.95 24.48 0 14.36-11.73 25.74-25.91 28.04-21.91 3.56-39.59 11.47-52.19 21.08-17.46 13.34-23.59 28.36-22.76 40.07 0.79 11.05 8.42 27.04 36.02 41.35 27.86 14.44 73.65 25.53 142.88 25.53 69.22 0 115.01-11.09 142.88-25.53 27.59-14.31 35.23-30.3 36.02-41.35 0.83-11.71-5.3-26.73-22.77-40.07-12.59-9.61-30.27-17.52-52.19-21.08-14.18-2.3-25.91-13.68-25.91-28.04 0-14.37 11.7-26.2 25.96-24.48 33.04 3.99 61.81 15.52 83.72 32.25 27.24 20.81 45.49 51.3 43.08 85.12-2.46 34.47-25.72 64-63.97 83.83-37.98 19.69-92.98 31.37-166.82 31.37-73.84 0-128.85-11.68-166.83-31.37-38.24-19.83-61.5-49.36-63.96-83.83-2.42-33.82 15.84-64.31 43.08-85.12z"/>
	</g>
</svg>