<svg version="1.2" xmlns="http://www.w3.org/2000/svg" viewBox="0 0 512 512" width="512" height="512">
	<g id="layer1">
		<path id="path4" fill="#000000" d="m305.65 87.48c5.82-0.96 11.49-1.75 17.42-2.47 12.6-0.13 25.48 2.04 37.39 6.43 16.29 8.11 30.39 20.16 41.24 35.05 6.79 9.61 9.4 21.33 7.2 32.71-21.38 115.79-97.66 213.83-204.49 263.3-12.2 5.52-26.35 5.92-38.61 0.66-9.1-3.99-17.77-8.52-25.4-14.18-17.78-13.45-30.42-31.95-37-52.87-0.89-2.49-0.26-5.57 1.47-7.79 0.86-1.11 2.34-2.05 3.71-2.46l81.79-31.52c4.13-1.69 8.97 0.31 10.75 4.52l10.89 25.32c0.6 1.52 1.56 2.57 2.67 3.43 3.79 2.97 9.04 2.16 12-1.64l110.99-142.08c2.96-3.8 2.48-9.08-1.31-12.05-1.3-1.01-2.95-1.55-4.56-1.77l-16.43-1.07c-4.24-0.49-7.4-3.7-7.88-7.64l-8.64-84.61c-0.09-2.16 0.48-4.23 1.86-6 1.22-1.56 3.1-2.63 4.94-3.27z"/>
	</g>
</svg>