<svg version="1.2" xmlns="http://www.w3.org/2000/svg" viewBox="0 0 512 512" width="512" height="512">
	<g id="Layer 1">
		<g id="Layer 1">
			<path fill="#000000" d="m365.81 159.38q-0.86-0.44-1.7-0.9-0.85-0.47-1.68-0.95-0.84-0.49-1.66-0.99-0.82-0.51-1.63-1.04-2.34-1.55-4.59-3.24-2.25-1.69-4.4-3.51-2.14-1.82-4.18-3.77-2.03-1.95-3.94-4.01c-12.76-14.61-17.53-29.42-19.28-39.79h0.07c-1.47-8.61-0.86-14.18-0.77-14.18h-58.13v224.76c0 3.02 0 6-0.12 8.95 0 0.37-0.04 0.7-0.06 1.1q0.01 0.24-0.03 0.5 0 0.06 0 0.13c-0.31 4.01-1.1 7.98-2.37 11.8-1.27 3.83-3 7.48-5.16 10.88-2.16 3.4-4.72 6.53-7.64 9.31-2.92 2.78-6.16 5.19-9.67 7.18q-2.73 1.56-5.65 2.75-2.91 1.19-5.96 1.99-3.04 0.8-6.16 1.21-3.13 0.4-6.28 0.4c-27.08 0-49.03-22.09-49.03-49.36 0-27.27 21.95-49.35 49.03-49.35q1.92-0.01 3.84 0.14 1.91 0.15 3.81 0.45 1.89 0.3 3.76 0.75 1.86 0.45 3.69 1.05l0.07-59.19c-7.38-0.95-14.84-1.14-22.25-0.56-7.42 0.58-14.76 1.93-21.9 4.02-7.14 2.09-14.05 4.91-20.61 8.42-6.56 3.5-12.74 7.68-18.44 12.46q-3.75 3.26-7.2 6.83-3.45 3.57-6.58 7.43-3.13 3.86-5.91 7.98-2.78 4.11-5.2 8.45c-2.45 4.23-11.71 21.23-12.83 48.82-0.7 15.66 4 31.89 6.24 38.59v0.14c1.41 3.95 6.87 17.42 15.78 28.78q2.69 3.42 5.62 6.62 2.93 3.21 6.09 6.19 3.16 2.98 6.53 5.72 3.37 2.74 6.94 5.23v-0.14l0.14 0.14c28.14 19.12 59.34 17.86 59.34 17.86 5.4-0.22 23.49 0 44.04-9.73 22.78-10.8 35.76-26.88 35.76-26.88q3.1-3.6 5.89-7.45 2.78-3.84 5.23-7.91 2.45-4.07 4.54-8.34 2.1-4.26 3.83-8.68c5.25-13.83 7.01-30.41 7.01-37.04v-119.24c0.71 0.42 10.1 6.63 10.1 6.63 0 0 13.53 8.67 34.64 14.32 15.14 4.02 35.55 4.87 35.55 4.87v-57.71c-7.15 0.78-21.67-1.48-36.53-8.89z"/>
		</g>
	</g>
</svg>