<svg version="1.2" xmlns="http://www.w3.org/2000/svg" viewBox="0 0 512 512" width="512" height="512">
	<g id="Layer 1">
		<g id="g5">
			<path id="path7" fill="#000000" d="m255.78 85.4c0 0-152.69 0-190.87 10.05-20.49 5.62-37.38 22.5-43 43.4-10.05 38.17-10.05 117.33-10.05 117.33 0 0 0 79.57 10.05 117.34 5.62 20.9 22.1 37.38 43 43 38.58 10.45 190.87 10.45 190.87 10.45 0 0 152.7 0 190.88-10.05 20.89-5.62 37.38-22.1 43-43 10.05-38.18 10.05-117.34 10.05-117.34 0 0 0.4-79.56-10.05-117.73-5.62-20.9-22.11-37.38-43-43-38.18-10.45-190.88-10.45-190.88-10.45zm-48.62 97.65l126.98 73.13-126.98 73.14z"/>
		</g>
	</g>
</svg>