<svg version="1.2" xmlns="http://www.w3.org/2000/svg" viewBox="0 0 128 128" width="128" height="128">
	<title>logo-rueil-musique</title>
	<style>
		.s0 { fill: #585858 } 
		.s1 { fill: #ffffff } 
	</style>
	<g id="Layer 1 copy">
		<path id="Forme 1" fill-rule="evenodd" class="s0" d="m64 124c-32.1 0-58-25.9-58-58 0-32.1 25.9-58 58-58 32.1 0 58 25.9 58 58 0 32.1-25.9 58-58 58z"/>
		<path id="R" class="s1" aria-label="R"  d="m73.6 31q1.4 0 1.8 1.2l0.2 0.5q-4.3 0-6.4 5.2-2 5.1-3.1 15.1 8.5 1.6 13 10 6.4-4.1 9.9-11 3.6-6.9 3.6-13.6 0-6.7-5.1-11.6-5-4.9-14.4-4.9-18.1 0-28 12.9-6.9 9.1-6.9 19.4 0 10.3 5.3 13.9 2.2 1.4 4.8 1.4-1 2.3-3.1 2.3-7.5 0-10.5-7.9-1.5-3.8-1.5-8.6 0-4.9 2.2-10.9 4.6-13.1 16.6-19.8 9.2-5.2 21.1-5.2 8.5 0 14.4 2.7 5.9 2.7 8.5 6.9 2.8 4.7 2.8 10.1 0 5.3-2.1 10.2-2 4.9-6.3 9.6-4.2 4.6-9.9 7.4 2.5 6.5 4.5 24.2 0.7 5.7 1.9 11.1 2.6 11.4 11.1 11.4-0.2 1.8-2.6 1.8-12.2 0-14.8-11.6-1.3-5.5-1.7-11.1-0.3-5.6-0.6-12.7-0.3-7.2-1.4-11.6-5.5 2-11.7 2h-0.9q-2.8 21.7-9.5 29.7-2.7 3.3-7.1 5.5-4.3 2.2-9.6 2.2-5.2 0-8.8-1.8-3.5-1.8-5.1-4.6-2.2-4.1-2.2-7.5 0-3.4 1-6.3 1-3 2.9-5.8 1.9-2.9 5-4.7 3.1-1.8 6.7-1.8 2 0 2.8 1.4l0.2 0.5q-8.7 0-13.3 7.4-2.6 4.2-2.6 8.6 0 2 0.5 4.1 2.2 7.8 11 7.8 4.2 0 7.5-2.1 3.4-2.1 5.5-5.2 2.2-3.1 4-8.2 2.7-7.9 4.8-20.3-3.8-1.3-5.4-3.7-1.6-2.5-1.6-3.8 0-1.3 0-1.8 0.5-2.6 3-4.6 2.6-2.1 6.7-2.2 1.3-6.8 2.7-11.1 1.4-4.4 4-7.4 2.6-3.1 6.2-3.1zm-8.9 36.2h0.4q5.6 0 10.9-2.4-3-7.9-10.1-9.5zm-4.4-12.3q-3.6 0.3-5.1 2.2-1.5 1.8-1.5 3 0 4.1 4.7 6 1.2-7.6 1.9-11.2z"/>
	</g>
</svg>